<svg xmlns="http://www.w3.org/2000/svg" viewBox="0 0 128 128" width="128" height="128" role="img" aria-label="Kishan Sathi">
  <defs>
    <linearGradient id="g" x1="0" y1="0" x2="1" y2="1">
      <stop offset="0" stop-color="#14532d"/>
      <stop offset="1" stop-color="#16a34a"/>
    </linearGradient>
  </defs>

  <rect x="0" y="0" width="128" height="128" rx="28" fill="url(#g)"/>

  <!-- Simple wheat mark (white) -->
  <g fill="none" stroke="#ffffff" stroke-width="7" stroke-linecap="round" stroke-linejoin="round">
    <!-- stem -->
    <path d="M64 102 V36"/>
    <!-- left grains -->
    <path d="M64 46 C52 48 44 56 42 66"/>
    <path d="M64 58 C52 60 46 68 44 78"/>
    <path d="M64 70 C54 72 50 78 48 86"/>
    <!-- right grains -->
    <path d="M64 46 C76 48 84 56 86 66"/>
    <path d="M64 58 C76 60 82 68 84 78"/>
    <path d="M64 70 C74 72 78 78 80 86"/>
  </g>
</svg>
