<svg xmlns="http://www.w3.org/2000/svg" width="192" height="192" viewBox="0 0 192 192" role="img" aria-label="KrishiConnect">
  <defs>
    <linearGradient id="g" x1="0" y1="0" x2="1" y2="1">
      <stop offset="0" stop-color="#14532d"/>
      <stop offset="1" stop-color="#16a34a"/>
    </linearGradient>
  </defs>

  <rect width="192" height="192" rx="40" fill="url(#g)"/>

  <g fill="none" stroke="#ffffff" stroke-width="10" stroke-linecap="round" stroke-linejoin="round">
    <path d="M96 156 V52"/>

    <path d="M96 64 C78 66 66 78 62 94"/>
    <path d="M96 84 C80 86 70 98 66 112"/>
    <path d="M96 104 C82 106 76 114 72 126"/>

    <path d="M96 64 C114 66 126 78 130 94"/>
    <path d="M96 84 C112 86 122 98 126 112"/>
    <path d="M96 104 C110 106 116 114 120 126"/>
  </g>
</svg>
